<?xml version="1.0" standalone="no"?><!DOCTYPE svg PUBLIC "-//W3C//DTD SVG 1.1//EN" "http://www.w3.org/Graphics/SVG/1.1/DTD/svg11.dtd"><svg t="1528268381694" class="icon" style="" viewBox="0 0 1024 1024" version="1.1" xmlns="http://www.w3.org/2000/svg" p-id="6533" xmlns:xlink="http://www.w3.org/1999/xlink" width="128" height="128"><defs><style type="text/css">html, * { user-select: text !important; }
</style></defs><path d="M26.4 758.6v-98H1000v98H569.4v91.6c0 32.4-8 59-24.2 79.4-8.4 10.2-23.6 19-45.4 26.4-13.8 4.6-25.4 6.8-34.8 6.8H382v-98h54.4c19 0 28.4-11 28.4-32.8v-73.6H26.4z" fill="#d81e06" p-id="6534"></path><path d="M26.4 962.6v-97.4h5.2c17.6 0 33.8-8.2 48.6-24.4 10.6-11.4 16.8-28.8 19-52.4h99.2c-4.2 32.8-10.2 58.2-18 75.8-26.6 58.8-78 91.6-154 98.4zM41.2 512.8h942v97.4h-942zM829.6 788.2l96 0.6c2.8 23.4 10.2 41.6 22.2 54.6 13.4 14.4 28.8 21.8 46.4 21.8h5.8v97.4c-50-0.4-92.6-20-127.8-58.8-25.2-27.6-39.4-66-42.6-115.6zM567.8 353.2c-10 0-18 3-24.2 9-6.6 5.6-10 12.6-10 20.8 0 8.2 3.2 15.4 9.4 21.4 6.2 5.6 14.4 8.4 24.2 8.4 9.6 0 17.6-2.6 23.8-8 6-5.2 9-12.2 9-20.8 0-9.2-3.2-16.6-9.4-21.8-6-6-13.6-9-22.8-9z" fill="#d81e06" p-id="6535"></path><path d="M886 199c-7.4-7.4-16.4-11.2-27-11.2h-25.6c0.6 1.4 0.8 3 0.8 4.6v13.8c0 7.6-6.2 13.8-13.8 13.8h-13.8c-7.6 0-13.8-6.2-13.8-13.8v-13.8c0-1.6 0.4-3.2 0.8-4.6H224.2c0.6 1.4 0.8 3 0.8 4.6v13.8c0 7.6-6.2 13.8-13.8 13.8h-13.8c-7.6 0-13.8-6.2-13.8-13.8v-13.8c0-1.6 0.4-3.2 0.8-4.6h-28c-10.6 0-19.6 3.8-27 11.2-7.4 7.4-11.2 16.4-11.2 27v228.4c0 10.6 3.8 19.6 11.2 27 7.4 7.4 16.4 11.2 27 11.2h27.4c-0.2-0.8-0.2-1.6-0.2-2.4v-13.8c0-7.6 6.2-13.8 13.8-13.8h13.8c7.6 0 13.8 6.2 13.8 13.8v13.8c0 0.8-0.2 1.6-0.2 2.4h568c-0.2-0.8-0.2-1.6-0.2-2.4v-13.8c0-7.6 6.2-13.8 13.8-13.8h13.8c7.6 0 13.8 6.2 13.8 13.8v13.8c0 0.8-0.2 1.6-0.2 2.4h25c10.6 0 19.6-3.8 27-11.2 7.4-7.4 11.2-16.4 11.2-27V226c0-10.6-3.6-19.6-11-27zM225 419.2c0 7.6-6.2 13.8-13.8 13.8h-13.8c-7.6 0-13.8-6.2-13.8-13.8v-13.8c0-7.6 6.2-13.8 13.8-13.8h13.8c7.6 0 13.8 6.2 13.8 13.8v13.8z m0-71c0 7.6-6.2 13.8-13.8 13.8h-13.8c-7.6 0-13.8-6.2-13.8-13.8v-13.8c0-7.6 6.2-13.8 13.8-13.8h13.8c7.6 0 13.8 6.2 13.8 13.8v13.8z m0-71c0 7.6-6.2 13.8-13.8 13.8h-13.8c-7.6 0-13.8-6.2-13.8-13.8v-13.8c0-7.6 6.2-13.8 13.8-13.8h13.8c7.6 0 13.8 6.2 13.8 13.8v13.8z m189.8 167.8v-172h-39.2l23.2-37.6h60v209.6h-44z m216-25.8c-6.6 11-14.8 18.6-24.8 23.2-9.6 5.2-22.4 8-38.2 8-17.2 0-30.8-2.4-40.6-7.4-10.2-5-18.4-12.6-24.2-22.8-6-10.2-9-21.6-9-34.2 0-10.6 2.4-20.6 7.4-30.2 4.2-8.6 11.6-16.6 21.8-24.2-7-7-11.8-13.8-14.4-20.4-3.4-7-5-14.6-5-22.8 0-11.2 2.6-21.2 8-29.8 5.2-9.2 12.8-16.4 22.4-21.4 9.2-5 20.4-7.4 33.2-7.4 11.6 0 22.2 2.4 31.8 7.4 9.2 5 16.6 12.2 22.4 21.8 5.2 8.6 8 18.6 8 29.8 0 7-1.4 13.8-4 20.8-3.4 7.2-8.4 14.6-15.4 21.8 9.6 6 16.8 13.8 21.8 23.8 5.2 9.2 8 19.4 8 30.8-0.2 12.2-3.2 23.2-9.2 33.2z m203.4 0c0 7.6-6.2 13.8-13.8 13.8h-13.8c-7.6 0-13.8-6.2-13.8-13.8v-13.8c0-7.6 6.2-13.8 13.8-13.8h13.8c7.6 0 13.8 6.2 13.8 13.8v13.8z m0-71c0 7.6-6.2 13.8-13.8 13.8h-13.8c-7.6 0-13.8-6.2-13.8-13.8v-13.8c0-7.6 6.2-13.8 13.8-13.8h13.8c7.6 0 13.8 6.2 13.8 13.8v13.8z m0-71c0 7.6-6.2 13.8-13.8 13.8h-13.8c-7.6 0-13.8-6.2-13.8-13.8v-13.8c0-7.6 6.2-13.8 13.8-13.8h13.8c7.6 0 13.8 6.2 13.8 13.8v13.8z" fill="#d81e06" p-id="6536"></path><path d="M566.8 315.6c6.6 0 11.8-2.2 15.8-6.4 4.2-4.2 6.4-10 6.4-17.4 0-7-2.2-12.4-6.4-16.4-4.2-4.2-10-6.4-16.8-6.4-6.6 0-11.8 2.2-15.8 6.4-4.2 4.2-6.4 9.8-6.4 16.4 0 7 2.2 12.8 6.4 17.4 4.4 4.2 10 6.4 16.8 6.4zM24 61h976v103.8H24z" fill="#d81e06" p-id="6537"></path></svg>